<?xml version="1.0" encoding="UTF-8"?>
<svg width="219px" height="90px" viewBox="0 0 219 90" version="1.1" xmlns="http://www.w3.org/2000/svg" xmlns:xlink="http://www.w3.org/1999/xlink">
    <!-- Generator: Sketch 52.4 (67378) - http://www.bohemiancoding.com/sketch -->
    <title>Rapid_Skrill_white</title>
    <desc>Created with Sketch.</desc>
    <g id="Rapid_Skrill_white" stroke="none" stroke-width="1" fill="none" fill-rule="evenodd">
        <g id="Group" transform="translate(33.450000, 9.600000)" fill="#FFFFFF">
            <g id="rapid_svg" transform="translate(0.675000, 0.675000)">
                <path d="M98.4662791,0.45 L104.424419,0.45 L104.368605,0.673255814 C104.263954,1.09186047 104.14186,1.5 103.998837,1.90116279 L104.145349,0.987209302 C103.527907,0.76744186 102.861628,0.756976745 102.216279,0.711627907 C100.786046,0.669767442 99.5127908,0.394186046 98.1453487,1.00116279 L98.4558139,0.46744186 L98.4662791,0.45 Z" id="Shape"></path>
                <path d="M17.2848837,0.586046512 C21.4081395,0.690697674 25.5453489,0.568604651 29.6686046,0.638372093 C30.9488373,0.805813954 32.3511629,1.65697675 32.7941861,2.93023255 C33.2023255,4.12325581 33.0104651,5.30232559 32.5639535,6.45000001 C30.5058139,11.8674418 28.4720931,17.2988372 26.4104651,22.7127907 C25.6255814,24.7081394 24.038372,26.1488371 22.1441861,27.0802325 C21.0872093,33.1988373 20.0302326,39.327907 18.9837209,45.45 L18.8267442,45.45 C16.8069767,45.2093024 14.7348837,45.394186 12.7011628,45.3383721 C13.8209302,39.4918605 14.8848837,33.6279069 16.0046512,27.7779069 C14.9965116,27.7709303 13.9918605,27.7709303 12.9837209,27.7779069 C10.7860465,33.6383721 8.50465116,39.4709303 6.3244186,45.3348837 C4.23837209,45.3279069 2.14534884,45.3662791 0.0593023255,45.3069767 C0.788372093,43.9151164 1.25232558,42.4465117 1.8244186,40.9883722 C6.98720931,27.5232557 12.1081395,14.0441861 17.2848837,0.586046512 Z M21.3802326,5.85697675 C19.1372093,11.4767442 17.0406977,17.25 14.8430232,22.8976744 C16.6430232,22.9011628 18.4395349,22.9011628 20.2395349,22.9011628 C22.4023256,17.2081395 24.5511628,11.5151163 26.7174418,5.8255814 C24.9418604,5.84651162 23.155814,5.7627907 21.3802326,5.85697675 Z" id="Combined-Shape" fill-rule="nonzero"></path>
                <path d="M48.8267442,0.641860465 C51.3872093,0.589534884 53.9511629,0.641860465 56.511628,0.617441861 C58.1337209,0.565116279 59.8813954,1.66395349 60.2965116,3.28953487 C60.6593023,4.5 60.2860464,5.54302325 59.8883722,6.67325581 C55.0779071,19.5593023 50.3093023,32.4627908 45.5093023,45.3558139 C43.4511628,45.3139535 41.3930232,45.3593023 39.3313955,45.3209303 C41.4941861,39.4674419 43.6639536,33.6174419 45.8790698,27.7813953 C43.9848837,27.7918605 42.0767442,27.7186046 40.1860465,27.8058139 C39.9418605,28.1546512 39.805814,28.594186 39.6488372,28.988372 C37.639535,34.4511628 35.5534884,39.8825582 33.544186,45.3418605 C31.4965116,45.3279069 29.4523256,45.3558139 27.4081394,45.3244185 C32.1069767,32.8046513 36.8232559,20.2918605 41.5290697,7.77906977 C41.9372093,6.71860465 42.2825582,5.57790698 42.8546511,4.59767441 C44.1313954,2.50465116 46.4337209,1.06046512 48.8267442,0.641860465 Z M48.3802326,5.80116278 C46.2069767,11.3965116 44.1627907,17.0860465 42.0069766,22.6918605 C43.9290697,22.7023256 45.8476744,22.7023256 47.7697675,22.6883721 C49.8453489,17.0372093 51.9802326,11.4104651 54.0662791,5.7627907 C52.1755814,5.79069767 50.2674419,5.69302326 48.3802326,5.80116278 Z" id="Combined-Shape" fill-rule="nonzero"></path>
                <path d="M71.8325582,0.641860465 C75.6767441,0.596511628 79.5279069,0.641860465 83.3720931,0.617441861 C84.9976745,0.558139535 86.7488373,1.66744186 87.1813953,3.28604652 C87.4953488,4.36395348 87.2476745,5.35116278 86.8918606,6.37674419 C84.5162791,12.8651163 82.1406976,19.3569768 79.7755815,25.8523256 C78.8093024,28.9953488 75.5232559,31.4895348 72.2093024,31.3779069 C70.3325581,31.3813953 68.4523256,31.3709303 66.572093,31.3744185 C64.8627908,36.027907 63.1151163,40.6709303 61.444186,45.3348837 C60.0744185,45.3302325 58.0197674,45.3197674 55.2802325,45.3034883 C62.6290698,25.45 68.1465117,10.5627907 71.8325582,0.641860465 Z M80.9895348,5.82209303 C79.3220931,5.83604651 77.6476744,5.77674419 75.9837208,5.85697676 C73.4755815,12.6 71.0127907,19.3709302 68.5011627,26.1139536 C70.1825582,26.1174418 71.8639535,26.1104652 73.5488372,26.1209302 C76.0534884,19.3639535 78.5511628,12.6034884 80.9895348,5.82209303 Z" id="Combined-Shape" fill-rule="nonzero"></path>
                <path d="M114.704651,0.620930232 C118.677907,0.624418605 122.654651,0.627906977 126.627907,0.617441861 C128.25,0.523255814 130.088372,1.59767442 130.541861,3.22325582 C130.82093,4.23139536 130.681395,5.23604651 130.346512,6.2127907 C126.345349,17.4523256 122.319767,28.6953489 118.32907,39.9383721 C117.202326,43.3465117 113.606792,45.3104651 109.883721,45.3418605 C107.376744,45.3627907 103.611768,45.3523256 98.5887918,45.3104651 C99.1094422,43.8430232 99.505814,42.7290698 99.7779069,41.9686047 C104.748837,28.1860465 109.737209,14.4069768 114.704651,0.620930232 Z M118.918605,5.82906976 C114.798837,17.1976744 110.640698,28.8069768 106.541861,40.2034885 C108.401163,40.1965117 110.263954,40.2209303 112.123256,40.1825581 C116.204651,28.7023255 120.338372,17.2360465 124.433721,5.75930232 C122.602326,5.80813954 120.736046,5.65813953 118.918605,5.82906976 Z" id="Combined-Shape" fill-rule="nonzero"></path>
                <polygon id="Shape" points="150.174419 0.526744186 150.181395 5.41744187 149.497675 5.4 149.501163 3.40465115 137.989535 3.35581396 137.989535 2.7 149.490698 2.7 149.501163 0.526744186"></polygon>
                <polygon id="Shape" points="98.3686172 0.617252189 104.368617 0.603298702 88.2313954 45.3139535 82.0674419 45.3244185"></polygon>
                <path d="M138,6.51627907 C141.955814,6.44302325 146.243023,6.52674418 150.205814,6.51627907 C150.198837,7.82405652 150.564912,10.0988372 149.117442,10.65 C147.938372,10.8732558 146.658139,10.772093 145.45814,10.7406977 C144.77093,10.7546512 144.491861,10.2872093 144.02093,9.88255814 C143.567442,10.2802326 143.295349,10.7546512 142.62907,10.7441861 C141.191861,10.7860465 139.440698,10.8139535 138.006977,10.7406977 L138,10.0988372 C139.60814,9.96976744 141.268605,10.1860465 142.859302,9.95581395 C143.884884,9.49883722 143.584884,8.1244186 143.682558,7.21744187 C141.791861,7.19302325 139.897674,7.24186046 138.006977,7.1755814 L138,6.51627907 Z M144.366279,7.19302324 L144.355814,7.37093023 C144.373256,8.3860465 144.034884,9.39069767 145.144186,9.94186046 C146.344186,10.0465116 147.739535,10.0534884 148.939535,9.92790697 C149.780232,9.3627907 149.42093,8.10697675 149.511628,7.21395349 C147.795349,7.2 146.082558,7.2244186 144.366279,7.19302324 Z" id="Combined-Shape" fill-rule="nonzero"></path>
                <path d="M138.059302,12.1639535 C141.586047,12.7325581 145.084884,13.4302326 148.604651,14.0302325 C149.225581,14.1767442 149.867442,14.1662791 150.348837,14.6162791 L150.348837,14.9302325 C149.054651,15.45 147.544186,15.5372093 146.169767,15.8302325 C143.525581,16.3674419 140.860465,16.7337209 138.230233,17.3302326 C138.212791,17.0825581 138.195349,16.8313954 138.181395,16.5837209 C139.011628,16.4232558 139.845349,16.2906977 140.67907,16.1651163 C140.693023,15.2162791 140.696512,14.2709302 140.696512,13.3255814 C140.159302,13.2302326 139.289252,13.0649707 138.086361,12.8297958 L138.059302,12.1639535 Z M141.432558,13.4651163 C141.436046,14.3093023 141.439535,15.1534884 141.443023,15.9976744 C143.82907,15.5197674 146.256977,15.2476744 148.625581,14.6930233 C146.222093,14.3058139 143.836047,13.8383721 141.432558,13.4651163 Z" id="Combined-Shape" fill-rule="nonzero"></path>
                <path d="M132.690698,17.5639535 C132.701163,26.8569767 132.732558,36.1569767 132.673256,45.45 L132.655814,45.45 C129.184884,45.1813955 125.67907,45.4465116 122.204651,45.3034883 C125.536046,36.5023256 128.836046,27.683721 132.143023,18.8686046 C132.317442,18.4290698 132.498837,17.9965116 132.690698,17.5639535 Z" id="Shape"></path>
                <path d="M138.251163,18.7116279 C141.819768,18.6732558 145.388372,18.7081395 148.953488,18.6906977 C149.480233,18.7883721 150.586047,18.422093 150.191861,19.3709302 C148.045349,20.1616279 144.782558,21.2383721 140.403488,22.6011628 L150.348837,22.6011628 L150.348837,23.222093 C146.256977,23.2988373 142.151163,23.2674419 138.055814,23.239535 C138.167442,22.1860465 139.077907,22.3395349 139.855814,21.9941861 C142.503488,21.1290698 145.193023,20.3511628 147.816279,19.4093023 C144.572093,19.2662791 141.313954,19.4267442 138.066279,19.377907 L138.251163,18.7116279 Z" id="Shape"></path>
                <path d="M142.493023,24.9697674 C142.472093,25.2104652 142.451163,25.4546512 142.430233,25.6988372 C141.415116,25.705814 140.351163,25.6081394 139.35,25.7755815 C138.565116,26.2186047 138.544186,28.0779071 139.35,28.4930233 C140.354651,28.6569767 141.505814,28.6325582 142.517442,28.5139535 C143.811628,27.7534883 144.390698,25.8279071 145.733721,25.1267443 C146.734884,24.8616279 147.882558,24.9627906 148.911628,25.0081396 C149.839535,25.1127907 150.181545,25.7755815 150.348837,26.605814 L150.348837,27.6488372 C150.255115,28.213248 150.129341,28.5139535 149.787209,28.855814 C148.92907,29.5918605 147.334884,29.2325582 146.274419,29.2883722 C146.284884,29.0546512 146.291861,28.8209302 146.298837,28.5872094 C147.240698,28.4930233 148.848837,28.8976745 149.469768,28.0534885 C149.556977,27.3348837 149.780232,26.2255815 149.019768,25.8000001 C148.165116,25.622093 146.947674,25.6151162 146.096512,25.8174419 C144.854651,26.6127908 144.25814,28.6499999 142.862791,29.2186046 C141.788372,29.4313955 140.619767,29.3616279 139.531395,29.2988372 C138.823256,29.2430232 138.265116,28.7093023 138.160465,28.0116279 C138.027907,27.0104652 137.947674,25.5593023 139.07093,25.0848837 C140.152326,24.8093024 141.380233,24.9697674 142.493023,24.9697674 Z" id="Shape"></path>
                <path d="M138.125581,30.9488373 C143.52093,30.9651163 147.545349,30.9651163 150.198837,30.9488373 C150.195349,32.1139534 150.195349,33.2825582 150.198837,34.4476744 L149.487209,34.4476744 C149.490698,33.5337208 149.494186,32.6093024 149.487209,31.6953488 C147.882558,31.705814 146.274419,31.705814 144.669767,31.6953488 C144.667442,32.2976744 144.659302,33.2023256 144.645349,34.4093024 L143.930232,34.4093024 C143.94186,33.1860466 143.94186,32.2790698 143.930232,31.688372 C142.639535,31.7046511 140.704651,31.7058139 138.125581,31.6918604 L138.125581,30.9488373 Z" id="Shape"></path>
                <path d="M138.216279,35.8709303 C143.546512,35.8616279 147.543023,35.8546511 150.205814,35.8499999 C150.198837,36.6267442 150.194186,37.7918605 150.191861,39.3453488 L149.494186,39.3313955 L149.494186,36.5337209 C147.347674,36.5383721 145.737209,36.5383721 144.662791,36.5337209 C144.666279,37.4546511 144.662791,38.3720931 144.648837,39.2930233 L143.951163,39.2930233 C143.954651,38.3860467 143.951163,37.4406977 143.951163,36.5337209 C142.823256,36.5360465 141.12907,36.5360465 138.868605,36.5337209 L138.868605,39.3453488 L138.216279,39.3453488 L138.216279,35.8709303 Z" id="Shape"></path>
                <path d="M138.188372,40.9709302 C142.189535,40.9674418 146.190698,40.9674418 150.188372,40.9709302 C150.181395,41.9965117 150.27907,43.0674419 150.104651,44.0790698 C149.937209,44.5744186 149.703439,45.0523736 149.002563,45.28126 C147.68047,45.2847484 146.387915,45.3139535 145.053488,45.2476744 C144.531263,45.024425 144.259161,44.7506102 144.010465,44.3023256 C143.703488,44.6337209 143.403488,44.9651162 143.054651,45.2511628 C141.359296,45.3104651 139.991241,45.3104651 138.293023,45.3104651 L138.293023,44.5534884 C139.737209,44.4279069 141.237209,44.6511627 142.67093,44.4418605 C143.933721,44.1558139 143.57093,42.6593023 143.682558,41.7069767 C141.851163,41.6895349 140.019768,41.7034883 138.188372,41.6930233 L138.188372,40.9709302 Z M144.327907,41.6930233 C144.373256,42.4500001 144.160465,43.5313953 144.701163,44.1244186 C145.311628,44.6232557 146.10603,44.5046513 146.860465,44.5046513 C147.71323,44.5046513 149.051163,44.6576391 149.309302,44.0686046 C149.445293,43.7310642 149.487661,42.9438549 149.436408,41.7069767 C147.181904,41.7023255 145.47907,41.6976744 144.327907,41.6930233 Z" id="Combined-Shape" fill-rule="nonzero"></path>
            </g>
            <g id="Group-20" transform="translate(55.800000, 50.718282)">
                <path d="M6.35593341,12.9180261 C6.35593341,11.168712 5.80322753,10.338732 4.51358047,10.1544967 C4.23722753,10.1544967 3.96087459,10.1544967 3.68452165,10.2475355 C3.50028635,10.338732 3.31605106,10.4317708 3.13181576,10.5229673 L3.13181576,15.4982414 C3.22393341,15.4982414 3.31605106,15.5894379 3.50028635,15.5894379 C3.68452165,15.6815555 3.86875694,15.6815555 4.14510988,15.6815555 C4.88205106,15.6815555 5.43475694,15.4052026 5.80322753,14.9446144 C6.17169812,14.3928296 6.35593341,13.7470849 6.35593341,12.9180261 Z M9.30369812,10.7993202 C9.48793341,11.4441438 9.58005106,12.1810849 9.856404,13.1953002 C9.856404,14.0234379 9.76428635,14.7603791 9.48793341,15.4052026 C9.21158047,16.0500261 8.84310988,16.6957708 8.38252165,17.1563591 C7.82981576,17.6169473 7.27710988,17.9844967 6.63228635,18.2617708 C5.98746282,18.4450849 5.158404,18.6293202 4.32934518,18.6293202 C3.96087459,18.6293202 3.592404,18.6293202 3.22393341,18.5381238 C2.85546282,18.4450849 2.48699224,18.4450849 2.11852165,18.3529673 C1.65793341,18.3529673 1.38158047,18.2617708 1.01310988,18.168732 C0.644639294,18.0775355 0.368286353,17.9844967 0.0919334118,17.8923791 L-0.000184235294,17.8011826 L-0.000184235294,3.42990847 L3.13181576,2.96932024 L3.13181576,7.94459435 C3.40816871,7.85155553 3.68452165,7.75943788 3.96087459,7.66824141 C4.32934518,7.66824141 4.69781576,7.57520259 5.06628635,7.57520259 C5.80322753,7.57520259 6.44805106,7.66824141 7.00075694,7.94459435 C7.46134518,8.22002612 7.92193341,8.49637906 8.38252165,9.05000612 C8.84310988,9.60179082 9.11946282,10.1544967 9.30369812,10.7993202 Z M16.8577136,7.85155553 L20.0818313,7.94459435 L19.9897136,8.12882965 C19.3448901,9.97118259 18.7921842,11.8135355 18.1473607,13.5628496 C17.5025372,15.2209673 16.8577136,16.8800061 16.1207725,18.5381238 C15.8444195,19.0899085 15.5680666,19.6435355 15.2917136,20.0110849 C15.0153607,20.3804767 14.7390078,20.7480261 14.3705372,21.0253002 C14.0020666,21.2086144 13.7257136,21.3928496 13.2651254,21.5770849 C12.8045372,21.6692026 12.3439489,21.7622414 11.7912431,21.7622414 C11.3306548,21.7622414 10.9621842,21.6692026 10.501596,21.5770849 C10.0410078,21.4858885 9.76465482,21.3928496 9.48830188,21.3016532 L9.39618424,21.2086144 L9.94889012,18.6293202 L10.1331254,18.7223591 C10.4094784,18.8135555 10.6858313,18.8135555 10.8700666,18.9056732 C11.0543019,18.998712 11.2385372,18.998712 11.5148901,18.998712 C12.067596,18.998712 12.3439489,18.9056732 12.6203019,18.6293202 C12.8966548,18.3529673 13.0808901,18.0775355 13.2651254,17.6169473 C12.6203019,16.4194179 11.9754784,14.9446144 11.3306548,13.3786144 C10.6858313,11.8135355 10.0410078,10.0623791 9.48830188,8.03579082 L9.39618424,7.85155553 L12.8045372,7.85155553 L12.8966548,7.94459435 C12.9887725,8.49637906 13.1730078,9.05000612 13.3572431,9.60179082 C13.5414784,10.1544967 13.7257136,10.7993202 13.9099489,11.3529473 C14.0941842,11.9968496 14.2784195,12.5504767 14.4626548,13.1022614 C14.6468901,13.5628496 14.7390078,13.9322414 14.9232431,14.2997908 C15.0153607,13.8392026 15.1074784,13.4716532 15.2917136,13.1022614 C15.4759489,12.5504767 15.6601842,11.904732 15.8444195,11.3529473 C15.9365372,10.7993202 16.1207725,10.1544967 16.3050078,9.60179082 C16.4892431,8.95696729 16.5813607,8.40518259 16.765596,7.94459435 L16.8577136,7.85155553 Z M24.2271254,6.37804165 C24.2271254,3.153924 27.1748901,0.943100471 30.4911254,1.03521812 C32.2413607,1.03521812 32.9783019,1.03521812 34.8206548,1.40368871 C36.0181842,1.68004165 36.3866548,1.86427694 37.0314784,2.04851224 L37.0314784,5.91745341 C36.6630078,5.82533576 36.2024195,5.64110047 35.7418313,5.45686518 C34.2679489,4.99627694 31.4123019,4.35145341 29.9384195,4.99627694 C28.8330078,5.36474753 28.8330078,6.65439459 29.8463019,7.11498282 C30.6753607,7.57557106 36.3866548,7.11498282 37.3999489,11.5366299 C38.3211254,15.5898064 34.7285372,18.2612181 30.7674784,18.2612181 C29.293596,18.2612181 25.6088901,18.1691005 24.5034784,17.6163946 L24.5034784,13.5632181 C24.8719489,13.6553358 25.2404195,13.8395711 25.6088901,13.9316887 C27.0827725,14.3922769 28.3724195,14.5765122 29.8463019,14.5765122 C32.7940666,14.5765122 32.8861842,12.3656887 31.5965372,11.9051005 C30.5832431,11.5366299 24.2271254,11.8129828 24.2271254,6.37804165 Z M38.6893196,1.86390847 C39.4262608,1.86390847 42.4661432,0.942732 43.3873196,0.942732 L43.3873196,9.78694729 C43.9400255,9.32635906 45.6902608,6.37767318 45.8744961,5.45649671 L51.2173196,5.45649671 C51.125202,6.10224141 50.1119079,8.22002612 49.7434373,8.772732 C47.7168491,12.734712 47.3483785,10.2475355 49.559202,14.8534179 L50.6646138,17.3405944 C50.7567314,17.6169473 50.8488491,17.9844967 50.9409667,18.168732 L45.2296726,18.168732 C45.2296726,17.5239085 44.6769667,15.9588296 44.4927314,15.4982414 C44.3084961,15.0376532 44.1242608,14.6682614 43.9400255,14.2997908 L43.4794373,13.4716532 C43.3873196,13.2864967 43.4794373,13.3786144 43.3873196,13.1953002 L43.3873196,18.0775355 L38.6893196,18.0775355 L38.6893196,1.86390847 Z M66.785202,1.77215929 C67.7063785,1.68004165 70.4699079,0.943100471 71.2989667,0.943100471 L71.2989667,18.0769828 L66.785202,18.0769828 L66.785202,1.77215929 Z M73.2338979,1.77215929 C73.7866038,1.77215929 77.1949567,0.943100471 77.7467414,0.943100471 L77.7467414,18.0769828 L73.2338979,18.0769828 L73.2338979,1.77215929 Z M51.678,10.8921748 C51.678,8.77254776 52.5991765,7.29958659 53.7967059,6.56264541 C55.2705882,5.64146894 56.1917647,5.64146894 57.5735294,5.45723365 C58.9552941,5.365116 58.2183529,5.45723365 59.0474118,5.45723365 L59.0474118,9.233136 C56.5602353,9.233136 56.1917647,10.1543125 56.1917647,12.7345278 L56.1917647,18.1685478 L51.678,18.1685478 L51.678,10.8921748 Z M60.4291765,18.0769828 L60.4291765,5.54806165 L64.9429412,5.54806165 L64.9429412,18.0769828 L60.4291765,18.0769828 Z M60.5213862,2.048328 C60.5213862,0.390210353 62.8243274,-0.807319059 64.2060921,0.666563294 C66.324798,2.78526918 63.192798,5.82607271 61.1662098,3.79856329 C60.6135039,3.24585741 60.5213862,2.78526918 60.5213862,2.048328 Z" id="Combined-Shape"></path>
            </g>
        </g>
    </g>
</svg>