<?xml version="1.0" encoding="UTF-8"?>
<svg width="154px" height="90px" viewBox="0 0 154 90" version="1.1" xmlns="http://www.w3.org/2000/svg" xmlns:xlink="http://www.w3.org/1999/xlink">
    <!-- Generator: Sketch 53.2 (72643) - https://sketchapp.com -->
    <title>Klarna Sofortüberweisung White</title>
    <desc>Created with Sketch.</desc>
    <g id="Klarna-Sofortüberweisung-White" stroke="none" stroke-width="1" fill="none" fill-rule="evenodd">
        <g id="Group-2" transform="translate(8.354593, 4.350000)">
            <g id="klarna-(1)" transform="translate(16.780866, 0.000000)">
                <path d="M9.955584,0 L93.724416,0 C99.2227332,8.75694891e-15 103.68,4.45726678 103.68,9.955584 L103.68,47.644416 C103.68,53.1427332 99.2227332,57.6 93.724416,57.6 L9.955584,57.6 C4.45726678,57.6 4.26553407e-13,53.1427332 4.20996571e-13,47.644416 L4.19220214e-13,9.955584 C4.18546864e-13,4.45726678 4.45726678,-2.54268919e-15 9.955584,-3.55271368e-15 Z M93.9884544,33.7450752 C92.6319744,33.7450752 91.5323904,34.8546355 91.5323904,36.223488 C91.5323904,37.592064 92.6319744,38.7019008 93.9884544,38.7019008 C95.3449114,38.7019008 96.4447488,37.5921331 96.4447488,36.223488 C96.4447488,34.8545434 95.3449574,33.7450752 93.9884544,33.7450752 Z M85.9076352,31.8289306 C85.9076352,33.7029811 84.3204557,35.2222618 82.3620096,35.2222618 C80.4035635,35.2222618 78.8161536,33.7029811 78.8161536,31.8289306 C78.8161536,29.9549722 80.4037709,28.4360602 82.3620096,28.4360602 C84.3202483,28.4360602 85.9076352,29.954903 85.9076352,31.8289306 Z M85.9208021,25.2344218 L85.9208021,25.2343757 L85.9208021,26.0780774 C84.8153429,25.3170662 83.4808661,24.8698598 82.0415573,24.8698598 C78.2328149,24.8698598 75.1449941,27.9853286 75.1449941,31.8288614 C75.1449941,35.6723942 78.2328149,38.7880934 82.0415573,38.7880934 C83.4808661,38.7880934 84.8152968,38.340864 85.9208021,37.5800832 L85.9208021,38.4229786 L89.8339157,38.4229786 L89.8339157,25.2344218 L85.9208021,25.2344218 Z M54.6048341,26.9523302 L54.6048341,25.2346061 L50.5984085,25.2346061 L50.5984085,38.4229325 L54.6138197,38.4229325 L54.6138197,32.2654925 C54.6138197,30.1880448 56.8452207,29.0714573 58.3935317,29.0714573 C58.4093874,29.0714573 58.4241887,29.0729957 58.4400449,29.0731915 L58.4400449,25.2356491 C56.8509069,25.2356491 55.3893185,25.9222411 54.6048065,26.9525899 L54.6048341,26.9523302 Z M44.6248277,31.8289766 C44.6248277,33.7030272 43.0373256,35.2223078 41.0789717,35.2223078 C39.1206869,35.2223078 37.5331157,33.7030272 37.5331157,31.8289766 C37.5331157,29.9550182 39.1207791,28.4361062 41.0789717,28.4361062 C43.0372565,28.4361062 44.6248277,29.9549491 44.6248277,31.8289766 Z M44.637773,25.2344678 L44.637773,25.2344218 L44.637773,26.0781235 C43.5323138,25.3171123 42.1979291,24.8699059 40.7587586,24.8699059 C36.9497858,24.8699059 33.861965,27.9853747 33.861965,31.8289075 C33.861965,35.6724403 36.9497858,38.7881395 40.7587586,38.7881395 C42.197837,38.7881395 43.5322677,38.3409101 44.637773,37.5801293 L44.637773,38.4230246 L48.551117,38.4230246 L48.551117,25.2344678 L44.637773,25.2344678 Z M68.191565,24.879744 C66.6283931,24.879744 65.1489026,25.3694592 64.1597954,26.7205248 L64.1597954,25.2352512 L60.263501,25.2352512 L60.263501,38.4231168 L64.2077186,38.4231168 L64.2077186,31.4924544 C64.2077186,29.4869146 65.5405134,28.5048576 67.1453186,28.5048576 C68.8651624,28.5048576 69.853901,29.5415654 69.853901,31.4652672 L69.853901,38.4231168 L73.7624066,38.4231168 L73.7624066,30.0363264 C73.7624066,26.967168 71.3441282,24.8799744 68.191565,24.8799744 L68.191565,24.879744 Z M28.161869,38.4231168 L32.2576898,38.4231168 L32.2576898,19.3572864 L28.161869,19.3572864 L28.161869,38.4231168 Z M10.1697026,38.4283195 L14.5067522,38.4283195 L14.5067522,19.3537339 L10.1697026,19.3537339 L10.1697026,38.4283195 Z M25.3392386,19.3537339 L25.3392616,19.3536878 L21.0950632,19.3536878 C21.0950632,22.8638318 19.4956264,26.0856532 16.7070952,28.1934446 L15.025613,29.4641467 L21.5408642,38.4290107 L26.8976642,38.4290107 L20.9026562,30.1799995 C23.7444328,27.3246523 25.3392386,23.4831931 25.3392386,19.3537339 Z" id="Combined-Shape" fill="#FFFFFF" fill-rule="nonzero"></path>
                <g id="Group" transform="translate(10.168934, 19.353600)"></g>
            </g>
            <path d="M6.38463591,71.6941406 C6.38463591,71.2511697 6.2303894,70.8952162 5.92189177,70.6262695 C5.61339413,70.3573229 5.07155385,70.1042004 4.29635466,69.8668945 C2.96744176,69.4661113 1.95890693,68.9941433 1.27071989,68.4509766 C0.582532857,67.9078098 0.238444501,67.1668992 0.238444501,66.2282227 C0.238444501,65.2842726 0.626038281,64.5130401 1.40123747,63.914502 C2.17643666,63.3159638 3.1651963,63.0166992 4.36754606,63.0166992 C5.64372432,63.0166992 6.670716,63.3383757 7.44855192,63.9817383 C8.22638784,64.6251009 8.60211651,65.4688424 8.57574919,66.5129883 L8.55992888,66.5604492 L6.32135466,66.5604492 C6.32135466,65.9856417 6.14733296,65.5439957 5.79928434,65.235498 C5.45123573,64.9270004 4.96344764,64.7727539 4.33590544,64.7727539 C3.76637134,64.7727539 3.32604371,64.9098619 3.01490934,65.184082 C2.70377498,65.4583022 2.54821013,65.8089822 2.54821013,66.2361328 C2.54821013,66.6263691 2.71695844,66.9467273 3.05446013,67.1972168 C3.39196181,67.4477063 3.97467083,67.7126939 4.80260466,67.9921875 C6.06823599,68.350783 7.0332654,68.8187959 7.69772184,69.3962402 C8.36217829,69.9736845 8.69440153,70.7343703 8.69440153,71.6783203 C8.69440153,72.6644581 8.30944444,73.4422823 7.53951872,74.0118164 C6.769593,74.5813505 5.75182974,74.8661133 4.48619841,74.8661133 C3.2469344,74.8661133 2.18302902,74.5576203 1.29445036,73.940625 C0.405871699,73.3236297 -0.0252275059,72.4034241 0.00113981347,71.1799805 L0.016960126,71.1325195 L2.25553434,71.1325195 C2.25553434,71.8127964 2.45592297,72.3137679 2.85670622,72.6354492 C3.25748947,72.9571305 3.8006481,73.1179688 4.48619841,73.1179688 C5.10319368,73.1179688 5.57384327,72.9887708 5.8981613,72.7303711 C6.22247933,72.4719714 6.38463591,72.1265647 6.38463591,71.6941406 Z M9.86510466,70.3415039 C9.86510466,69.0653257 10.2210581,68.0198771 10.9329758,67.205127 C11.6448934,66.3903768 12.6310163,65.9830078 13.8913742,65.9830078 C15.1570055,65.9830078 16.1484019,66.3890584 16.8655929,67.2011719 C17.582784,68.0132853 17.9413742,69.0600522 17.9413742,70.3415039 L17.9413742,70.5076172 C17.9413742,71.7943424 17.5841024,72.8424276 16.869548,73.6519043 C16.1549937,74.461381 15.1675524,74.8661133 13.9071945,74.8661133 C12.6415632,74.8661133 11.6514852,74.461381 10.9369308,73.6519043 C10.2223765,72.8424276 9.86510466,71.7943424 9.86510466,70.5076172 L9.86510466,70.3415039 Z M12.1669601,70.5076172 C12.1669601,71.2880898 12.3040681,71.9143043 12.5782883,72.3862793 C12.8525084,72.8582543 13.2954727,73.0942383 13.9071945,73.0942383 C14.5030959,73.0942383 14.9394685,72.856936 15.2163254,72.3823242 C15.4931822,71.9077125 15.6316086,71.2828164 15.6316086,70.5076172 L15.6316086,70.3415039 C15.6316086,69.5821251 15.4918639,68.9625024 15.2123703,68.4826172 C14.9328767,68.002732 14.4925491,67.762793 13.8913742,67.762793 C13.2954728,67.762793 12.8591002,68.0040503 12.5822433,68.4865723 C12.3053865,68.9690942 12.1669601,69.5873986 12.1669601,70.3415039 L12.1669601,70.5076172 Z M19.9663742,74.7 L19.9663742,67.762793 L18.692839,67.762793 L18.692839,66.1412109 L19.9663742,66.1412109 L19.9663742,65.1919922 C19.9663742,64.2322218 20.2432269,63.4926296 20.7969406,62.9731934 C21.3506543,62.4537572 22.1284786,62.194043 23.1304367,62.194043 C23.3255549,62.194043 23.5246251,62.2085448 23.7276535,62.2375488 C23.9306818,62.2665529 24.1534824,62.3074216 24.3960617,62.3601563 L24.1983078,64.0766602 C24.0717446,64.0555663 23.9491385,64.0371095 23.8304855,64.0212891 C23.7118326,64.0054687 23.5734062,63.9975586 23.4152023,63.9975586 C23.0407864,63.9975586 22.7573419,64.1003896 22.5648605,64.3060547 C22.3723791,64.5117198 22.2761398,64.8070293 22.2761398,65.1919922 L22.2761398,66.1412109 L23.9214523,66.1412109 L23.9214523,67.762793 L22.2761398,67.762793 L22.2761398,74.7 L19.9663742,74.7 Z M24.6570968,70.3415039 C24.6570968,69.0653257 25.0130503,68.0198771 25.7249679,67.205127 C26.4368856,66.3903768 27.4230085,65.9830078 28.6833664,65.9830078 C29.9489977,65.9830078 30.940394,66.3890584 31.6575851,67.2011719 C32.3747762,68.0132853 32.7333664,69.0600522 32.7333664,70.3415039 L32.7333664,70.5076172 C32.7333664,71.7943424 32.3760946,72.8424276 31.6615402,73.6519043 C30.9469859,74.461381 29.9595446,74.8661133 28.6991867,74.8661133 C27.4335554,74.8661133 26.4434774,74.461381 25.728923,73.6519043 C25.0143687,72.8424276 24.6570968,71.7943424 24.6570968,70.5076172 L24.6570968,70.3415039 Z M26.9589523,70.5076172 C26.9589523,71.2880898 27.0960603,71.9143043 27.3702804,72.3862793 C27.6445006,72.8582543 28.0874649,73.0942383 28.6991867,73.0942383 C29.2950881,73.0942383 29.7314607,72.856936 30.0083175,72.3823242 C30.2851744,71.9077125 30.4236008,71.2828164 30.4236008,70.5076172 L30.4236008,70.3415039 C30.4236008,69.5821251 30.2838561,68.9625024 30.0043625,68.4826172 C29.7248689,68.002732 29.2845413,67.762793 28.6833664,67.762793 C28.087465,67.762793 27.6510924,68.0040503 27.3742355,68.4865723 C27.0973787,68.9690942 26.9589523,69.5873986 26.9589523,70.3415039 L26.9589523,70.5076172 Z M38.6580734,68.1266602 L37.8116867,68.1029297 C37.4689115,68.1029297 37.1867855,68.1741204 36.9653,68.3165039 C36.7438145,68.4588874 36.5750662,68.6592761 36.45905,68.9176758 L36.45905,74.7 L34.1571945,74.7 L34.1571945,66.1412109 L36.3008468,66.1412109 L36.4036789,67.4068359 C36.6040705,66.9585915 36.8637847,66.6092298 37.1828293,66.3587402 C37.5018738,66.1082507 37.8696924,65.9830078 38.2862961,65.9830078 C38.4023123,65.9830078 38.5090983,65.9922362 38.6066574,66.0106934 C38.7042165,66.0291505 38.8030924,66.0515624 38.9032883,66.0779297 L38.6580734,68.1266602 Z M42.6289718,64.0450195 L42.6289718,66.1412109 L44.0765304,66.1412109 L44.0765304,67.762793 L42.6289718,67.762793 L42.6289718,72.1212891 C42.6289718,72.4535173 42.6988442,72.6908196 42.838591,72.8332031 C42.9783378,72.9755866 43.1615879,73.0467773 43.3883468,73.0467773 C43.5096365,73.0467773 43.6151042,73.0401856 43.7047531,73.027002 C43.794402,73.0138183 43.897233,72.9914064 44.0132492,72.9597656 L44.2030929,74.6288086 C43.9710605,74.7079106 43.7456233,74.7672361 43.5267746,74.8067871 C43.3079258,74.8463381 43.0693052,74.8661133 42.8109054,74.8661133 C42.0146124,74.8661133 41.4015814,74.6472678 40.9717941,74.2095703 C40.5420068,73.7718728 40.3271164,73.0784227 40.3271164,72.1291992 L40.3271164,67.762793 L39.0773117,67.762793 L39.0773117,66.1412109 L40.3271164,66.1412109 L40.3271164,64.0450195 L42.6289718,64.0450195 Z M50.7447922,73.434375 C50.481119,73.8931664 50.146259,74.2464831 49.7402023,74.4943359 C49.3341456,74.7421887 48.8621777,74.8661133 48.3242843,74.8661133 C47.422522,74.8661133 46.7172068,74.560257 46.2083175,73.9485352 C45.6994283,73.3368133 45.4449875,72.3876041 45.4449875,71.1008789 L45.4449875,66.1412109 L47.7468429,66.1412109 L47.7468429,71.1166992 C47.7468429,71.8655311 47.8483556,72.3783678 48.051384,72.6552246 C48.2544123,72.9320815 48.5694971,73.0705078 48.9966476,73.0705078 C49.3657901,73.0705078 49.6821932,73.0111822 49.9458664,72.8925293 C50.2095396,72.7738764 50.4257483,72.5985363 50.5944992,72.3665039 L50.5944992,66.1412109 L52.9042648,66.1412109 L52.9042648,74.7 L50.990007,74.7 L50.7447922,73.434375 Z M52.2002609,64.7490234 L50.0961593,64.7490234 L50.0961593,63.1353516 L52.2002609,63.1353516 L52.2002609,64.7490234 Z M48.2451828,64.7490234 L46.1410812,64.7490234 L46.1410812,63.1353516 L48.2451828,63.1353516 L48.2451828,64.7490234 Z M62.3648117,70.6579102 C62.3648117,71.9340884 62.0800489,72.9544884 61.5105148,73.7191406 C60.9409807,74.4837929 60.1183327,74.8661133 59.0425461,74.8661133 C58.541567,74.8661133 58.1051944,74.7606456 57.7334152,74.549707 C57.361636,74.3387685 57.0465513,74.0302755 56.7881515,73.6242188 L56.5983078,74.7 L54.6444992,74.7 L54.6444992,62.3601563 L56.9463547,62.3601563 L56.9463547,67.0508789 C57.1942075,66.7081038 57.4908354,66.4444345 57.8362472,66.2598633 C58.1816591,66.075292 58.5784813,65.9830078 59.0267258,65.9830078 C60.1130593,65.9830078 60.9409807,66.3930135 61.5105148,67.2130371 C62.0800489,68.0330607 62.3648117,69.1259697 62.3648117,70.4917969 L62.3648117,70.6579102 Z M60.0629562,70.4917969 C60.0629562,69.6585896 59.94035,68.9980981 59.695134,68.5103027 C59.4499179,68.0225073 59.0320021,67.7786133 58.4413742,67.7786133 C58.0827786,67.7786133 57.779559,67.853759 57.5317062,68.0040527 C57.2838534,68.1543465 57.0887382,68.3692369 56.9463547,68.6487305 L56.9463547,72.271582 C57.0887382,72.5299818 57.2851718,72.7277337 57.5356613,72.8648438 C57.7861508,73.0019538 58.0933255,73.0705078 58.4571945,73.0705078 C59.0530959,73.0705078 59.4696933,72.8608908 59.7069992,72.4416504 C59.9443051,72.02241 60.0629562,71.4278359 60.0629562,70.6579102 L60.0629562,70.4917969 Z M67.4985031,74.8661133 C66.2223248,74.8661133 65.2256551,74.4745645 64.508464,73.6914551 C63.7912729,72.9083457 63.4326828,71.8998109 63.4326828,70.6658203 L63.4326828,70.3494141 C63.4326828,69.0679623 63.7807262,68.0185588 64.4768234,67.2011719 C65.1729206,66.383785 66.13004,65.9777343 67.3482101,65.9830078 C68.4978252,65.9830078 69.3797989,66.3350062 69.9941574,67.0390137 C70.6085159,67.7430211 70.9156906,68.690912 70.9156906,69.8827148 L70.9156906,71.0771484 L65.8136398,71.0771484 L65.7899093,71.1246094 C65.8268236,71.7099639 66.0048003,72.1845685 66.3238449,72.5484375 C66.6428895,72.9123065 67.1161757,73.0942383 67.7437179,73.0942383 C68.2605174,73.0942383 68.6995267,73.0415044 69.060759,72.9360352 C69.4219912,72.8305659 69.7950832,72.6697276 70.1800461,72.4535156 L70.8049484,73.8773438 C70.4621733,74.1568373 69.9981154,74.391503 69.4127609,74.5813477 C68.8274064,74.7711924 68.1893269,74.8661133 67.4985031,74.8661133 Z M67.3482101,67.762793 C66.8841453,67.762793 66.5268735,67.9223129 66.276384,68.2413574 C66.0258944,68.560402 65.8742846,68.9835911 65.82155,69.5109375 L65.8373703,69.5504883 L68.6533859,69.5504883 L68.6533859,69.3764648 C68.6533859,68.8754858 68.5505549,68.4813003 68.3448898,68.1938965 C68.1392247,67.9064927 67.8070015,67.762793 67.3482101,67.762793 Z M76.7612961,68.1266602 L75.9149093,68.1029297 C75.5721342,68.1029297 75.2900081,68.1741204 75.0685226,68.3165039 C74.8470371,68.4588874 74.6782888,68.6592761 74.5622726,68.9176758 L74.5622726,74.7 L72.2604172,74.7 L72.2604172,66.1412109 L74.4040695,66.1412109 L74.5069015,67.4068359 C74.7072932,66.9585915 74.9670074,66.6092298 75.2860519,66.3587402 C75.6050965,66.1082507 75.9729151,65.9830078 76.3895187,65.9830078 C76.5055349,65.9830078 76.612321,65.9922362 76.70988,66.0106934 C76.8074391,66.0291505 76.9063151,66.0515624 77.0065109,66.0779297 L76.7612961,68.1266602 Z M85.4070968,71.5201172 L85.4545578,71.5201172 L86.4907883,66.1412109 L88.7372726,66.1412109 L86.5619797,74.7 L84.6319015,74.7 L83.0419601,69.7640625 L82.9944992,69.7640625 L81.4045578,74.7 L79.4823898,74.7 L77.3070968,66.1412109 L79.5535812,66.1412109 L80.605632,71.4963867 L80.6530929,71.4963867 L82.2509445,66.1412109 L83.793425,66.1412109 L85.4070968,71.5201172 Z M93.5941086,74.8661133 C92.3179303,74.8661133 91.3212606,74.4745645 90.6040695,73.6914551 C89.8868784,72.9083457 89.5282883,71.8998109 89.5282883,70.6658203 L89.5282883,70.3494141 C89.5282883,69.0679623 89.8763316,68.0185588 90.5724289,67.2011719 C91.2685261,66.383785 92.2256454,65.9777343 93.4438156,65.9830078 C94.5934307,65.9830078 95.4754043,66.3350062 96.0897629,67.0390137 C96.7041214,67.7430211 97.0112961,68.690912 97.0112961,69.8827148 L97.0112961,71.0771484 L91.9092453,71.0771484 L91.8855148,71.1246094 C91.9224291,71.7099639 92.1004058,72.1845685 92.4194504,72.5484375 C92.7384949,72.9123065 93.2117812,73.0942383 93.8393234,73.0942383 C94.3561229,73.0942383 94.7951321,73.0415044 95.1563644,72.9360352 C95.5175967,72.8305659 95.8906887,72.6697276 96.2756515,72.4535156 L96.9005539,73.8773438 C96.5577787,74.1568373 96.0937209,74.391503 95.5083664,74.5813477 C94.9230119,74.7711924 94.2849323,74.8661133 93.5941086,74.8661133 Z M93.4438156,67.762793 C92.9797508,67.762793 92.622479,67.9223129 92.3719894,68.2413574 C92.1214999,68.560402 91.9698901,68.9835911 91.9171554,69.5109375 L91.9329758,69.5504883 L94.7489914,69.5504883 L94.7489914,69.3764648 C94.7489914,68.8754858 94.6461604,68.4813003 94.4404953,68.1938965 C94.2348302,67.9064927 93.902607,67.762793 93.4438156,67.762793 Z M100.784441,74.7 L98.474675,74.7 L98.474675,66.1412109 L100.784441,66.1412109 L100.784441,74.7 Z M100.784441,64.0924805 L98.474675,64.0924805 L98.474675,62.3601563 L100.784441,62.3601563 L100.784441,64.0924805 Z M107.31032,72.3269531 C107.31032,72.0738269 107.187713,71.8562997 106.942497,71.6743652 C106.697281,71.4924307 106.242452,71.3329108 105.577995,71.1958008 C104.576037,70.9954092 103.815351,70.6921895 103.295915,70.2861328 C102.776479,69.8800761 102.516765,69.3290074 102.516765,68.6329102 C102.516765,67.8998987 102.827895,67.2750026 103.450163,66.7582031 C104.072432,66.2414037 104.900353,65.9830078 105.933952,65.9830078 C107.015012,65.9830078 107.881166,66.2414037 108.532439,66.7582031 C109.183711,67.2750026 109.496159,67.9183555 109.469792,68.6882813 L109.453972,68.7357422 L107.223308,68.7357422 C107.223308,68.392967 107.112567,68.1134776 106.891081,67.8972656 C106.669596,67.6810536 106.350556,67.5729492 105.933952,67.5729492 C105.56481,67.5729492 105.272137,67.6652335 105.055925,67.8498047 C104.839713,68.0343759 104.731609,68.2611315 104.731609,68.5300781 C104.731609,68.7937513 104.843668,69.0086417 105.06779,69.1747559 C105.291912,69.34087 105.746742,69.4898431 106.432292,69.6216797 C107.481711,69.8326182 108.263491,70.1424296 108.777653,70.551123 C109.291816,70.9598165 109.548894,71.5227503 109.548894,72.2399414 C109.548894,73.0098671 109.219307,73.6400366 108.560124,74.1304688 C107.900941,74.6209009 107.030833,74.8661133 105.949773,74.8661133 C104.810704,74.8661133 103.910274,74.5773955 103.248454,73.9999512 C102.586635,73.4225069 102.27155,72.7646521 102.303191,72.0263672 L102.319011,71.9789063 L104.431023,71.9789063 C104.446843,72.4376976 104.597134,72.7699208 104.881902,72.9755859 C105.166669,73.181251 105.538442,73.284082 105.997234,73.284082 C106.424384,73.284082 106.750016,73.1983895 106.974138,73.027002 C107.19826,72.8556144 107.31032,72.6222671 107.31032,72.3269531 Z M116.280437,73.434375 C116.016763,73.8931664 115.681904,74.2464831 115.275847,74.4943359 C114.86979,74.7421887 114.397822,74.8661133 113.859929,74.8661133 C112.958167,74.8661133 112.252851,74.560257 111.743962,73.9485352 C111.235073,73.3368133 110.980632,72.3876041 110.980632,71.1008789 L110.980632,66.1412109 L113.282487,66.1412109 L113.282487,71.1166992 C113.282487,71.8655311 113.384,72.3783678 113.587028,72.6552246 C113.790057,72.9320815 114.105142,73.0705078 114.532292,73.0705078 C114.901435,73.0705078 115.217838,73.0111822 115.481511,72.8925293 C115.745184,72.7738764 115.961393,72.5985363 116.130144,72.3665039 L116.130144,66.1412109 L118.439909,66.1412109 L118.439909,74.7 L116.525652,74.7 L116.280437,73.434375 Z M122.292155,66.1412109 L122.394987,67.3672852 C122.679755,66.9295877 123.030435,66.5894543 123.447038,66.346875 C123.863642,66.1042957 124.330336,65.9830078 124.847136,65.9830078 C125.711984,65.9830078 126.386977,66.2611789 126.872136,66.8175293 C127.357295,67.3738797 127.59987,68.2532166 127.59987,69.4555664 L127.59987,74.7 L125.282195,74.7 L125.282195,69.4634766 C125.282195,68.8517548 125.175408,68.4180189 124.961833,68.1622559 C124.748258,67.9064929 124.4279,67.7786133 124.000749,67.7786133 C123.657974,67.7786133 123.356073,67.8432122 123.095036,67.9724121 C122.834,68.101612 122.619109,68.2795887 122.450359,68.5063477 L122.450359,74.7 L120.140593,74.7 L120.140593,66.1412109 L122.292155,66.1412109 Z M128.984148,70.4917969 C128.984148,69.1417901 129.27682,68.0528362 129.862175,67.2249023 C130.447529,66.3969685 131.270177,65.9830078 132.330144,65.9830078 C132.810029,65.9830078 133.2319,66.0911122 133.595769,66.3073242 C133.959638,66.5235362 134.270767,66.8320292 134.529167,67.2328125 L134.711101,66.1412109 L136.69655,66.1412109 L136.69655,74.6604492 C136.69655,75.7731501 136.332686,76.6340302 135.604948,77.2431152 C134.87721,77.8522003 133.862084,78.1567383 132.559538,78.1567383 C132.127114,78.1567383 131.66833,78.0974127 131.183171,77.9787598 C130.698012,77.8601068 130.249775,77.6979502 129.838445,77.4922852 L130.226042,75.7678711 C130.579364,75.9366219 130.944546,76.0645015 131.321599,76.1515137 C131.698651,76.2385258 132.10602,76.2820313 132.543718,76.2820313 C133.176534,76.2820313 133.64191,76.1501966 133.939861,75.8865234 C134.237811,75.6228502 134.386784,75.2115262 134.386784,74.6525391 L134.386784,73.8773438 C134.133658,74.199025 133.835712,74.4442374 133.492937,74.6129883 C133.150162,74.7817391 132.757294,74.8661133 132.314323,74.8661133 C131.264904,74.8661133 130.447529,74.4811562 129.862175,73.7112305 C129.27682,72.9413047 128.984148,71.9235415 128.984148,70.6579102 L128.984148,70.4917969 Z M131.293913,70.6579102 C131.293913,71.406742 131.419156,71.9960428 131.669646,72.4258301 C131.920135,72.8556174 132.330141,73.0705078 132.899675,73.0705078 C133.252997,73.0705078 133.552262,73.0059088 133.797478,72.876709 C134.042694,72.7475091 134.239127,72.5589856 134.386784,72.3111328 L134.386784,68.6012695 C134.239127,68.3375963 134.042694,68.134571 133.797478,67.9921875 C133.552262,67.849804 133.25827,67.7786133 132.915495,67.7786133 C132.351235,67.7786133 131.939911,68.0290991 131.681511,68.5300781 C131.423111,69.0310572 131.293913,69.6849569 131.293913,70.4917969 L131.293913,70.6579102 Z" id="Sofortüberweisung" fill="#FFFFFF" fill-rule="nonzero"></path>
        </g>
    </g>
</svg>